# xmcd
#
# Track frame offsets:
#	150
#	23460
#	42712
#	60970
#	78275
#	93672
#	113257
#	130132
#	147382
#	162495
#	181180
#	200132
#
# Disc length: 2921 seconds
#
# Revision: 1
# Processed by: cddbd v1.5.1PL0 Copyright (c) Steve Scherf et al.
# Submitted via: CDex 1.50Beta5
#
DISCID=9b0b670c
DTITLE=アルフィー - TV・映画スーパーヒット12
DYEAR=1900
DGENRE=Pop
TTITLE0=アルフィー/君が通り過ぎたあとに
TTITLE1=崎谷健次郎/思いがけないSITUATION
TTITLE2=夢工場/舌打ちのマリア
TTITLE3=トム・キャット/TOUGH BOY
TTITLE4=明石家さんま/真赤なウソ
TTITLE5=研ナオコ/雨の日の映画館
TTITLE6=浅倉亜季/陽あたり良好
TTITLE7=岩井由紀子/天使のボディーガード
TTITLE8=新田恵利/若草の招待状
TTITLE9=芹澤廣明/18番目のサマーホリデー
TTITLE10=BaBe/Give Me Up
TTITLE11=福永恵規/夏のイントロ
EXTD=
EXTT0=
EXTT1=
EXTT2=
EXTT3=
EXTT4=
EXTT5=
EXTT6=
EXTT7=
EXTT8=
EXTT9=
EXTT10=
EXTT11=
PLAYORDER=
